<svg width="15" height="15" viewBox="0 0 15 15" fill="none" xmlns="http://www.w3.org/2000/svg">
<circle cx="7.5" cy="7.5" r="7.5" fill="#D9D9D9"/>
<path d="M4.36 11.156C3.808 11.156 3.304 11.014 2.848 10.73C2.396 10.446 2.034 10.064 1.762 9.584C1.494 9.104 1.36 8.574 1.36 7.994C1.36 7.558 1.438 7.15 1.594 6.77C1.75 6.386 1.964 6.05 2.236 5.762C2.512 5.47 2.832 5.242 3.196 5.078C3.56 4.914 3.948 4.832 4.36 4.832C4.828 4.832 5.256 4.932 5.644 5.132C6.036 5.328 6.368 5.598 6.64 5.942C6.912 6.286 7.11 6.678 7.234 7.118C7.358 7.558 7.386 8.018 7.318 8.498H2.932C2.988 8.722 3.08 8.924 3.208 9.104C3.336 9.28 3.498 9.422 3.694 9.53C3.89 9.634 4.112 9.688 4.36 9.692C4.616 9.696 4.848 9.636 5.056 9.512C5.268 9.384 5.444 9.212 5.584 8.996L7.078 9.344C6.834 9.876 6.47 10.312 5.986 10.652C5.502 10.988 4.96 11.156 4.36 11.156ZM2.884 7.4H5.836C5.792 7.16 5.698 6.944 5.554 6.752C5.414 6.556 5.24 6.4 5.032 6.284C4.824 6.168 4.6 6.11 4.36 6.11C4.12 6.11 3.898 6.168 3.694 6.284C3.49 6.396 3.316 6.55 3.172 6.746C3.032 6.938 2.936 7.156 2.884 7.4Z" fill="url(#paint0_linear_330_26)"/>
<path d="M10.64 11.156C11.192 11.156 11.696 11.014 12.152 10.73C12.604 10.446 12.966 10.064 13.238 9.584C13.506 9.104 13.64 8.574 13.64 7.994C13.64 7.558 13.562 7.15 13.406 6.77C13.25 6.386 13.036 6.05 12.764 5.762C12.488 5.47 12.168 5.242 11.804 5.078C11.44 4.914 11.052 4.832 10.64 4.832C10.172 4.832 9.744 4.932 9.356 5.132C8.964 5.328 8.632 5.598 8.36 5.942C8.088 6.286 7.89 6.678 7.766 7.118C7.642 7.558 7.614 8.018 7.682 8.498H12.068C12.012 8.722 11.92 8.924 11.792 9.104C11.664 9.28 11.502 9.422 11.306 9.53C11.11 9.634 10.888 9.688 10.64 9.692C10.384 9.696 10.152 9.636 9.944 9.512C9.732 9.384 9.556 9.212 9.416 8.996L7.922 9.344C8.166 9.876 8.53 10.312 9.014 10.652C9.498 10.988 10.04 11.156 10.64 11.156ZM12.116 7.4H9.164C9.208 7.16 9.302 6.944 9.446 6.752C9.586 6.556 9.76 6.4 9.968 6.284C10.176 6.168 10.4 6.11 10.64 6.11C10.88 6.11 11.102 6.168 11.306 6.284C11.51 6.396 11.684 6.55 11.828 6.746C11.968 6.938 12.064 7.156 12.116 7.4Z" fill="url(#paint1_linear_330_26)"/>
<defs>
<linearGradient id="paint0_linear_330_26" x1="4" y1="0" x2="4" y2="12" gradientUnits="userSpaceOnUse">
<stop stop-color="#C74A4A"/>
<stop offset="0.5" stop-color="#943737"/>
<stop offset="0.75" stop-color="#3B4F14"/>
<stop offset="0.9375" stop-color="#A38181"/>
<stop offset="0.96875" stop-color="#BEADAD"/>
<stop offset="0.984375" stop-color="#CCC3C3"/>
<stop offset="1" stop-color="#D9D9D9"/>
</linearGradient>
<linearGradient id="paint1_linear_330_26" x1="10.5" y1="0" x2="10.5" y2="12" gradientUnits="userSpaceOnUse">
<stop stop-color="#C74A4A"/>
<stop offset="0.5" stop-color="#943737"/>
<stop offset="0.75" stop-color="#3B4F14"/>
<stop offset="0.9375" stop-color="#A38181"/>
<stop offset="0.96875" stop-color="#BEADAD"/>
<stop offset="0.984375" stop-color="#CCC3C3"/>
<stop offset="1" stop-color="#D9D9D9"/>
</linearGradient>
</defs>
</svg>
